# xmcd CD database file
#
# Track frame offsets:
#	150
#	34701
#	48437
#	90403
#	106348
#	134402
#	148506
#	180266
#	210802
#	228198
#	246472
#	272722
#	301261
#
# Disc length: 4238 seconds
#
# Revision: 4
# Processed by: cddbd v1.5.2PL0 Copyright (c) Steve Scherf et al.
# Submitted via: CDex 1.51
#
DISCID=a4108c0d
DTITLE=Michel Petrucciani - So What  { Best Of }
DYEAR=2004
DGENRE=Jazz
TTITLE0=Summertime   (1995)
TTITLE1=Little Peace In C For U   (1996)
TTITLE2=Home   (1999)
TTITLE3=J'aurais Tellement Voulu   (2002)
TTITLE4=Chloe Meets Gershwin   (1997)
TTITLE5=Brazilian Like   (1998)
TTITLE6=So What   (1999)
TTITLE7=Les Grelots   (1994)
TTITLE8=Looking Up   (1998)
TTITLE9=Besame Mucho   (1998)
TTITLE10=Why   (1994)
TTITLE11=Michel's Blues   (2001)
TTITLE12=Pennies From Heaven   (1996)
EXTD=YEAR: 2004
EXTT0=
EXTT1=
EXTT2=
EXTT3=
EXTT4=
EXTT5=
EXTT6=
EXTT7=
EXTT8=
EXTT9=
EXTT10=
EXTT11=
EXTT12=
PLAYORDER=
